<svg id="Layer_2" data-name="Layer 2" xmlns="http://www.w3.org/2000/svg" viewBox="0 0 450.42 450.42"><defs><style>.cls-1{fill:#fff;}.cls-1,.cls-3{stroke:#000;stroke-miterlimit:10;stroke-width:3px;}.cls-2{font-size:115px;fill:#c70200;letter-spacing:0.03em;}.cls-2,.cls-4{font-family:BreeSerif-Regular, Bree Serif;}.cls-3{fill:none;}.cls-4{font-size:42.5px;}</style></defs><circle class="cls-1" cx="224.47" cy="223.29" r="214.79"/><text class="cls-2" transform="translate(84.92 263.33)">RCCS</text><circle class="cls-3" cx="224.47" cy="223.17" r="161.81"/><text class="cls-4" transform="translate(393.71 268.6) rotate(109.64)">V</text><text class="cls-4" transform="translate(383.86 294.86) rotate(116.46)">I</text><text class="cls-4" transform="matrix(-0.54, 0.84, -0.84, -0.54, 378.21, 306.96)">C</text><text class="cls-4" transform="matrix(-0.65, 0.76, -0.76, -0.65, 364.43, 328.14)">T</text><text class="cls-4" transform="translate(349.98 345.22) rotate(138.82)">O</text><text class="cls-4" transform="translate(328.67 363.78) rotate(147.8)">R</text><text class="cls-4" transform="translate(307.86 376.95) rotate(155.53)">Y</text><text class="cls-4" transform="translate(285.29 386.78) rotate(161.05)"> </text><text class="cls-4" transform="translate(276.89 389.94) rotate(166.08)">•</text><text class="cls-4" transform="translate(255.76 394.87) rotate(171.1)"> </text><text class="cls-4" transform="translate(246.95 396.54) rotate(176.24)">S</text><text class="cls-4" transform="translate(224.64 398.03) rotate(-176.27)">T</text><text class="cls-4" transform="matrix(-0.98, -0.2, 0.2, -0.98, 201.03, 396.48)">E</text><text class="cls-4" transform="matrix(-0.94, -0.34, 0.34, -0.94, 178.02, 391.95)">R</text><text class="cls-4" transform="translate(152.92 382.85) rotate(-152.2)">L</text><text class="cls-4" transform="matrix(-0.83, -0.56, 0.56, -0.83, 132.59, 371.81)">I</text><text class="cls-4" transform="matrix(-0.76, -0.66, 0.66, -0.76, 121.24, 364.82)">N</text><text class="cls-4" transform="translate(98.69 345.13) rotate(-129.85)">G</text><text class="cls-4" transform="translate(81.42 323.64) rotate(-123.88)"> </text><text class="cls-4" transform="translate(76.2 316.34) rotate(-118.82)">•</text><text class="cls-4" transform="matrix(-0.4, -0.92, 0.92, -0.4, 66, 297.17)"> </text><text class="cls-4" transform="translate(62.05 289.2) rotate(-108.02)">C</text><text class="cls-4" transform="translate(54.03 264.85) rotate(-99.21)">O</text><text class="cls-4" transform="translate(49.44 237.03) rotate(-89.76)">N</text><text class="cls-4" transform="translate(49.63 207.1) rotate(-80.31)">Q</text><text class="cls-4" transform="matrix(0.32, -0.95, 0.95, 0.32, 54.39, 179.29)">U</text><text class="cls-4" transform="matrix(0.46, -0.89, 0.89, 0.46, 63.64, 152.81)">E</text><text class="cls-4" transform="translate(74.49 131.95) rotate(-55.08)">S</text><text class="cls-4" transform="translate(87.26 113.6) rotate(-47.58)">T</text><text class="cls-4" transform="translate(103.67 96.19) rotate(-42.29)"> </text><text class="cls-4" transform="matrix(0.8, -0.61, 0.61, 0.8, 110.12, 89.97)">•</text><text class="cls-4" transform="matrix(0.85, -0.53, 0.53, 0.85, 127.56, 77.06)"> </text><text class="cls-4" transform="translate(134.45 71.58) rotate(-24.59)">W</text><text class="cls-4" transform="translate(167.88 56.66) rotate(-14.11)">O</text><text class="cls-4" transform="translate(195.35 49.96) rotate(-5.76)">L</text><text class="cls-4" transform="matrix(1, 0.04, -0.04, 1, 218.21, 47.57)">C</text><text class="cls-4" transform="translate(243.82 48.44) rotate(10.93)">O</text><text class="cls-4" transform="translate(270.37 53.65) rotate(19.02)">T</text><text class="cls-4" transform="matrix(0.89, 0.45, -0.45, 0.89, 292.71, 61.36)">T</text><text class="cls-4" transform="translate(313.88 72.47) rotate(32.22)"> </text><text class="cls-4" transform="translate(321.6 77.03) rotate(37.26)">•</text><text class="cls-4" transform="matrix(0.74, 0.67, -0.67, 0.74, 338.69, 90.41)"> </text><text class="cls-4" transform="translate(345.56 96.11) rotate(47.87)">B</text><text class="cls-4" transform="matrix(0.55, 0.84, -0.84, 0.55, 362.83, 115.06)">U</text><text class="cls-4" transform="matrix(0.42, 0.91, -0.91, 0.42, 378.11, 138.58)">T</text><text class="cls-4" transform="matrix(0.3, 0.96, -0.96, 0.3, 388.03, 160.06)">L</text><text class="cls-4" transform="translate(394.83 182.04) rotate(80.42)">E</text><text class="cls-4" transform="translate(398.83 205.14) rotate(88.58)">R</text><text class="cls-4" transform="translate(399.02 232.08) rotate(94.41)"> </text><text class="cls-4" transform="matrix(-0.16, 0.99, -0.99, -0.16, 398.59, 241.05)">•</text><text class="cls-4" transform="translate(394.75 262.39) rotate(104.42)"> </text></svg>